<svg xmlns="http://www.w3.org/2000/svg"  viewBox="0 0 24 24" width="24px" height="24px" clip-rule="evenodd"><path fill-rule="evenodd" d="M 12 1 C 5.9392995 1 1.0058594 5.9368346 1.0058594 12 C 1.0058594 17.566892 5.1558671 22.185105 10.535156 22.902344 L 10.550781 22.904297 L 10.566406 22.90625 C 10.566396 22.906156 11.416732 23 12 23 C 18.0607 23 22.994141 18.063165 22.994141 12 C 22.994141 5.9368346 18.0607 1 12 1 z M 12 3 C 16.9793 3 20.994141 7.0171654 20.994141 12 C 20.994141 16.948513 17.033227 20.939325 12.101562 20.994141 C 12.632195 20.752446 13.438832 20.378585 14.742188 19.375 C 16.520233 18.005902 18.490974 15.947124 18.917969 13.134766 L 18.917969 13.132812 C 18.971122 12.780414 19 12.42328 19 12.0625 C 19 8.2315642 15.893532 5.098942 12.070312 5.0605469 C 8.2436434 5.0222454 5.0924859 8.0666196 5.0019531 11.894531 C 4.9287521 15.04216 6.9429186 17.75157 9.7695312 18.701172 C 9.8195953 18.717972 9.8574219 18.767242 9.8574219 18.833984 L 9.8574219 20.738281 C 5.9242768 19.778215 3.0058594 16.242475 3.0058594 12 C 3.0058594 7.0171654 7.0207005 3 12 3 z M 12.050781 7.0605469 C 14.79956 7.0881518 17 9.3054358 17 12.0625 C 17 12.31972 16.980246 12.576433 16.941406 12.833984 C 16.633401 14.862626 15.086938 16.583661 13.521484 17.789062 C 12.664092 18.449257 12.441964 18.488152 11.847656 18.804688 C 11.834214 17.910072 11.269857 17.096379 10.40625 16.806641 C 8.3928627 16.130242 6.9472007 14.211778 7 11.941406 C 7.0654672 9.1733183 9.28345 7.0328484 12.050781 7.0605469 z" clip-rule="evenodd"/></svg>